<svg width="327" height="48" viewBox="0 0 327 48" fill="none" xmlns="http://www.w3.org/2000/svg">
<path d="M0.5 24C0.5 11.0213 11.0213 0.5 24 0.5H303C315.979 0.5 326.5 11.0213 326.5 24C326.5 36.9787 315.979 47.5 303 47.5H24C11.0213 47.5 0.5 36.9787 0.5 24Z" stroke="#C6C6C6"/>
<path d="M92.5534 20.2579C93.9246 17.5344 96.7427 15.667 100 15.667C102.246 15.667 104.133 16.4928 105.576 17.8375L103.186 20.2276C102.322 19.4019 101.224 18.9814 100 18.9814C97.8298 18.9814 95.9927 20.4473 95.3375 22.417C95.1707 22.917 95.076 23.4511 95.076 24.0003C95.076 24.5496 95.1707 25.0837 95.3375 25.5837C95.9927 27.5533 97.8298 29.0192 100 29.0192C101.121 29.0192 102.076 28.7238 102.822 28.2238C103.705 27.6329 104.292 26.7503 104.485 25.7087H100V22.4852H107.849C107.947 23.0306 108 23.5988 108 24.1897C108 26.7276 107.091 28.8639 105.515 30.3147C104.137 31.5875 102.25 32.3337 100 32.3337C96.7427 32.3337 93.9246 30.4662 92.5534 27.7427C91.989 26.6177 91.667 25.345 91.667 24.0003C91.667 22.6557 91.989 21.3829 92.5534 20.2579Z" fill="white"/>
<path d="M120.797 22.2656C120.375 20.9219 119.359 20.1094 117.859 20.1094C115.953 20.1094 114.484 21.6094 114.484 24.3438C114.484 27.0781 115.938 28.5781 117.938 28.5781C119.742 28.5781 120.938 27.4375 120.969 25.625H118.188V24.2031H122.641V25.4844C122.641 28.3438 120.672 30.1562 117.922 30.1562C114.859 30.1562 112.781 27.9219 112.781 24.3438C112.781 20.7344 114.922 18.5312 117.844 18.5312C120.297 18.5312 122.172 20.0625 122.562 22.2656H120.797ZM128.078 30.1719C125.672 30.1719 124.109 28.4219 124.109 25.7969C124.109 23.1562 125.672 21.4062 128.078 21.4062C130.469 21.4062 132.031 23.1562 132.031 25.7969C132.031 28.4219 130.469 30.1719 128.078 30.1719ZM128.078 28.7812C129.609 28.7812 130.344 27.4219 130.344 25.7969C130.344 24.1719 129.609 22.7812 128.078 22.7812C126.516 22.7812 125.781 24.1719 125.781 25.7969C125.781 27.4219 126.516 28.7812 128.078 28.7812ZM137.266 30.1719C134.859 30.1719 133.297 28.4219 133.297 25.7969C133.297 23.1562 134.859 21.4062 137.266 21.4062C139.656 21.4062 141.219 23.1562 141.219 25.7969C141.219 28.4219 139.656 30.1719 137.266 30.1719ZM137.266 28.7812C138.797 28.7812 139.531 27.4219 139.531 25.7969C139.531 24.1719 138.797 22.7812 137.266 22.7812C135.703 22.7812 134.969 24.1719 134.969 25.7969C134.969 27.4219 135.703 28.7812 137.266 28.7812ZM146.422 33.3594C144.281 33.3594 142.875 32.4062 142.719 30.8281H144.422C144.578 31.625 145.328 32.0156 146.438 32.0156C147.766 32.0156 148.609 31.4531 148.609 30.125V28.4531H148.5C148.203 29 147.594 29.875 146.031 29.875C144.031 29.875 142.484 28.375 142.484 25.6719C142.484 22.9688 144 21.4062 146.047 21.4062C147.625 21.4062 148.203 22.3594 148.516 22.8906H148.625V21.5156H150.25V30.1875C150.25 32.3594 148.609 33.3594 146.422 33.3594ZM146.406 28.5C147.828 28.5 148.625 27.4531 148.625 25.7031C148.625 23.9844 147.844 22.8281 146.406 22.8281C144.922 22.8281 144.188 24.0781 144.188 25.7031C144.188 27.3594 144.953 28.5 146.406 28.5ZM153.953 18.6875V30H152.281V18.6875H153.953ZM159.641 30.1719C157.141 30.1719 155.609 28.4531 155.609 25.8125C155.609 23.2031 157.172 21.4062 159.531 21.4062C161.469 21.4062 163.297 22.6094 163.297 25.6719V26.2656H157.266C157.312 27.875 158.258 28.7969 159.656 28.7969C160.609 28.7969 161.219 28.3906 161.5 27.875H163.188C162.812 29.25 161.5 30.1719 159.641 30.1719ZM157.281 25.0156H161.656C161.656 23.7188 160.828 22.7812 159.547 22.7812C158.211 22.7812 157.344 23.8125 157.281 25.0156ZM177.266 28.4062V29.6562H164.453V28.4062H170.094V25.9531H166.016V21.5H174.234V19.5312H165.984V18.3125H175.703V22.6875H167.484V24.7344H176.031V25.9531H171.562V28.4062H177.266ZM187.328 20.8906C187.312 23.4531 188.859 26.0156 191.031 26.9844L190.141 28.1562C188.531 27.3906 187.258 25.8203 186.609 23.9062C185.953 25.9531 184.664 27.6484 182.984 28.4688L182.078 27.2188C184.281 26.2344 185.828 23.5625 185.828 20.8906V18.5H187.328V20.8906ZM193.781 17.3281V31.3594H192.297V17.3281H193.781ZM200.906 19.8438C200.906 21.625 202.141 23.3281 204.281 24.0469L203.531 25.2031C201.945 24.6562 200.781 23.5625 200.172 22.1875C199.562 23.7031 198.352 24.8906 196.703 25.4688L195.906 24.3125C198.094 23.5625 199.406 21.7656 199.422 19.8281V19.4531H196.344V18.25H203.922V19.4531H200.906V19.8438ZM207.016 17.3281V20.9219H209.047V22.1719H207.016V25.7656H205.531V17.3281H207.016ZM207.016 26.4531V31.3281H205.531V27.6562H197.766V26.4531H207.016ZM220.75 17.3281V23H223V24.2344H220.75V31.3281H219.281V17.3281H220.75ZM218.062 19.5156V20.7344H209.766V19.5156H213.219V17.5156H214.703V19.5156H218.062ZM213.969 21.7656C215.969 21.7656 217.438 23.1094 217.453 25.0156C217.438 26.9375 215.969 28.2656 213.969 28.2812C211.953 28.2656 210.484 26.9375 210.484 25.0156C210.484 23.1094 211.953 21.7656 213.969 21.7656ZM213.969 22.9844C212.781 22.9844 211.891 23.8125 211.906 25.0156C211.891 26.2344 212.781 27.0469 213.969 27.0312C215.156 27.0469 216.031 26.2344 216.031 25.0156C216.031 23.8125 215.156 22.9844 213.969 22.9844ZM235.312 17.3281V31.3281H233.812V17.3281H235.312ZM231.141 18.8281C231.141 22.9219 229.391 26.4844 224.594 28.7812L223.812 27.5781C227.539 25.8047 229.352 23.2812 229.641 20.0156H224.484V18.8281H231.141Z" fill="white"/>
</svg>
