<svg width="327" height="48" viewBox="0 0 327 48" fill="none" xmlns="http://www.w3.org/2000/svg">
<path d="M0 24C0 10.7452 10.7452 0 24 0H303C316.255 0 327 10.7452 327 24C327 37.2548 316.255 48 303 48H24C10.7452 48 0 37.2548 0 24Z" fill="white"/>
<path d="M104.228 20.018C103.498 20.018 102.367 19.188 101.177 19.218C99.6075 19.238 98.1675 20.128 97.3575 21.538C95.7275 24.368 96.9375 28.548 98.5275 30.848C99.3075 31.968 100.227 33.228 101.447 33.188C102.617 33.138 103.058 32.428 104.478 32.428C105.888 32.428 106.288 33.188 107.528 33.158C108.788 33.138 109.588 32.018 110.358 30.888C111.248 29.588 111.618 28.328 111.638 28.258C111.608 28.248 109.188 27.318 109.158 24.518C109.138 22.178 111.068 21.058 111.158 21.008C110.058 19.398 108.368 19.218 107.778 19.178C106.238 19.058 104.948 20.018 104.228 20.018ZM106.828 17.658C107.478 16.878 107.908 15.788 107.788 14.708C106.858 14.748 105.738 15.328 105.068 16.108C104.468 16.798 103.948 17.908 104.088 18.968C105.118 19.048 106.178 18.438 106.828 17.658Z" fill="#0C0E0F"/>
<path d="M118.625 30H116.797L120.859 18.6875H122.844L126.922 30H125.094L124.062 27.0156H119.656L118.625 30ZM120.156 25.5781H123.562L121.891 20.75H121.812L120.156 25.5781ZM128.219 33.1875V21.5156H129.844V22.8906H129.984C130.281 22.3594 130.859 21.4062 132.422 21.4062C134.469 21.4062 135.984 23.0156 135.984 25.7812C135.984 28.5156 134.5 30.1719 132.438 30.1719C130.891 30.1719 130.281 29.2344 129.984 28.6719H129.891V33.1875H128.219ZM129.859 25.75C129.859 27.5312 130.641 28.75 132.062 28.75C133.531 28.75 134.297 27.4531 134.297 25.75C134.297 24.0781 133.547 22.8281 132.062 22.8281C130.625 22.8281 129.859 23.9844 129.859 25.75ZM137.641 33.1875V21.5156H139.266V22.8906H139.406C139.703 22.3594 140.281 21.4062 141.844 21.4062C143.891 21.4062 145.406 23.0156 145.406 25.7812C145.406 28.5156 143.922 30.1719 141.859 30.1719C140.312 30.1719 139.703 29.2344 139.406 28.6719H139.312V33.1875H137.641ZM139.281 25.75C139.281 27.5312 140.062 28.75 141.484 28.75C142.953 28.75 143.719 27.4531 143.719 25.75C143.719 24.0781 142.969 22.8281 141.484 22.8281C140.047 22.8281 139.281 23.9844 139.281 25.75ZM148.734 18.6875V30H147.062V18.6875H148.734ZM154.422 30.1719C151.922 30.1719 150.391 28.4531 150.391 25.8125C150.391 23.2031 151.953 21.4062 154.312 21.4062C156.25 21.4062 158.078 22.6094 158.078 25.6719V26.2656H152.047C152.094 27.875 153.039 28.7969 154.438 28.7969C155.391 28.7969 156 28.3906 156.281 27.875H157.969C157.594 29.25 156.281 30.1719 154.422 30.1719ZM152.062 25.0156H156.438C156.438 23.7188 155.609 22.7812 154.328 22.7812C152.992 22.7812 152.125 23.8125 152.062 25.0156ZM172.047 28.4062V29.6562H159.234V28.4062H164.875V25.9531H160.797V21.5H169.016V19.5312H160.766V18.3125H170.484V22.6875H162.266V24.7344H170.812V25.9531H166.344V28.4062H172.047ZM182.109 20.8906C182.094 23.4531 183.641 26.0156 185.812 26.9844L184.922 28.1562C183.312 27.3906 182.039 25.8203 181.391 23.9062C180.734 25.9531 179.445 27.6484 177.766 28.4688L176.859 27.2188C179.062 26.2344 180.609 23.5625 180.609 20.8906V18.5H182.109V20.8906ZM188.562 17.3281V31.3594H187.078V17.3281H188.562ZM195.688 19.8438C195.688 21.625 196.922 23.3281 199.062 24.0469L198.312 25.2031C196.727 24.6562 195.562 23.5625 194.953 22.1875C194.344 23.7031 193.133 24.8906 191.484 25.4688L190.688 24.3125C192.875 23.5625 194.188 21.7656 194.203 19.8281V19.4531H191.125V18.25H198.703V19.4531H195.688V19.8438ZM201.797 17.3281V20.9219H203.828V22.1719H201.797V25.7656H200.312V17.3281H201.797ZM201.797 26.4531V31.3281H200.312V27.6562H192.547V26.4531H201.797ZM215.531 17.3281V23H217.781V24.2344H215.531V31.3281H214.062V17.3281H215.531ZM212.844 19.5156V20.7344H204.547V19.5156H208V17.5156H209.484V19.5156H212.844ZM208.75 21.7656C210.75 21.7656 212.219 23.1094 212.234 25.0156C212.219 26.9375 210.75 28.2656 208.75 28.2812C206.734 28.2656 205.266 26.9375 205.266 25.0156C205.266 23.1094 206.734 21.7656 208.75 21.7656ZM208.75 22.9844C207.562 22.9844 206.672 23.8125 206.688 25.0156C206.672 26.2344 207.562 27.0469 208.75 27.0312C209.938 27.0469 210.812 26.2344 210.812 25.0156C210.812 23.8125 209.938 22.9844 208.75 22.9844ZM230.094 17.3281V31.3281H228.594V17.3281H230.094ZM225.922 18.8281C225.922 22.9219 224.172 26.4844 219.375 28.7812L218.594 27.5781C222.32 25.8047 224.133 23.2812 224.422 20.0156H219.266V18.8281H225.922Z" fill="#202325"/>
</svg>
